#define stick_width 12
#define stick_height 12
static unsigned char stick_bits[] = {
   0x07, 0x0e, 0x07, 0x0e, 0x07, 0x0e, 0x07, 0x0e, 0x07, 0x0e, 0x07, 0x0e,
   0xff, 0xff, 0xff, 0xff, 0xff, 0xff, 0xff, 0xff, 0xff, 0xff, 0xff, 0xff};
