#define stick_width 12
#define stick_height 12
static unsigned char stick_bits[] = {
   0x00, 0x0e, 0x00, 0x0e, 0x00, 0x0e, 0x83, 0x0e, 0x83, 0x0e, 0x83, 0x0e,
   0xff, 0xff, 0xff, 0xff, 0xff, 0xff, 0xff, 0xff, 0xff, 0xff, 0xff, 0xff};
